<svg width="187" height="225" fill="none" xmlns="http://www.w3.org/2000/svg"><path fill-rule="evenodd" clip-rule="evenodd" d="M93.5 25.803c-30.87 0-55.894 25.068-55.894 55.992 0 6.81.098 9.667.924 12.869.854 3.314 2.703 7.695 7.61 16.39 1.668 2.955 6.353 8.761 13.725 16.75 7.053 7.643 15.7 16.376 24.376 24.895 8.658 8.5 17.252 16.697 24.173 23.259 1.752 1.661 3.417 3.237 4.959 4.695 4.416 4.178 7.816 7.395 9.324 8.906 6.803 6.816 11.671 9.638 17.424 9.638 11.665 0 21.121-9.473 21.121-21.158 0-4.438-1.349-8.21-3.993-11.869-4.17-5.771-2.88-13.837 2.881-18.015 5.762-4.178 13.814-2.886 17.984 2.886 5.459 7.555 8.886 16.534 8.886 26.998C187 203.975 166.012 225 140.121 225c-16.309 0-27.504-9.047-35.638-17.197-1.227-1.229-4.156-4-8.365-7.982a6228.785 6228.785 0 01-5.41-5.123c-6.958-6.597-15.679-14.914-24.497-23.572-8.8-8.64-17.79-17.711-25.26-25.808-7.153-7.75-13.878-15.62-17.234-21.566-5.14-9.11-8.392-15.909-10.127-22.636-1.742-6.759-1.742-12.741-1.742-19.093v-.228C11.848 36.62 48.405 0 93.5 0s81.652 36.62 81.652 81.795c0 15.707-4.433 30.417-12.12 42.898-2.341 3.801-6.464 8.585-10.489 12.985-4.262 4.659-9.245 9.77-13.938 14.466a917.183 917.183 0 01-17.598 17.115l-.295.279-.099.093-.006.006-.001.001s-.001.001-8.818-9.403l-8.817-9.404.004-.004.083-.078.273-.258a747.164 747.164 0 004.921-4.697 879.002 879.002 0 0012.151-11.907c4.569-4.571 9.253-9.382 13.151-13.642 4.134-4.519 6.664-7.65 7.557-9.101 5.251-8.525 8.283-18.563 8.283-29.35 0-30.923-25.025-55.991-55.894-55.991zM26.87 148.155c5.761 4.178 7.051 12.244 2.88 18.015-2.643 3.659-3.992 7.431-3.992 11.869 0 11.685 9.456 21.158 21.12 21.158 5.618 0 10.958-2.902 19.227-11.187l18.214 18.246C75.073 215.517 63.323 225 46.879 225 20.989 225 0 203.975 0 178.039c0-10.464 3.427-19.443 8.886-26.998 4.17-5.772 12.222-7.064 17.984-2.886z" fill="#3369FE"/></svg>