<svg width="16" height="16" fill="none" xmlns="http://www.w3.org/2000/svg"><g clip-path="url(#clip0_2592_1528)"><path fill-rule="evenodd" clip-rule="evenodd" d="M8.149 1.835a3.978 3.978 0 00-3.975 3.982c0 .484.007.687.066.915.06.235.192.547.541 1.165.119.21.452.623.976 1.191a52.538 52.538 0 001.733 1.77c.616.605 1.227 1.188 1.72 1.655l.352.334c.314.297.556.525.663.633.484.484.83.685 1.24.685.829 0 1.501-.673 1.501-1.504 0-.316-.096-.584-.284-.844a.918.918 0 01.205-1.281.915.915 0 011.279.205 3.22 3.22 0 01.632 1.92A3.337 3.337 0 0111.464 16c-1.16 0-1.956-.643-2.534-1.223a43.8 43.8 0 00-.595-.567l-.385-.365c-.494-.469-1.115-1.06-1.742-1.676a54.36 54.36 0 01-1.796-1.835c-.509-.551-.987-1.111-1.225-1.534-.366-.648-.597-1.131-.72-1.61-.124-.48-.124-.906-.124-1.357v-.016C2.343 2.604 4.943 0 8.149 0a5.811 5.811 0 015.806 5.817 5.801 5.801 0 01-.862 3.05c-.166.27-.46.61-.745.923-.304.332-.658.695-.992 1.03a64.88 64.88 0 01-1.251 1.216l-.021.02-.007.007-.628-.668-.627-.67.007-.005.019-.018a28.25 28.25 0 00.35-.334c.23-.222.54-.523.864-.847.325-.325.658-.667.935-.97.294-.322.474-.544.538-.647.373-.607.589-1.32.589-2.087a3.978 3.978 0 00-3.975-3.982zm-4.738 8.7c.41.297.501.871.205 1.282-.188.26-.284.528-.284.844 0 .83.672 1.504 1.502 1.504.399 0 .779-.206 1.367-.795l1.295 1.297C6.839 15.326 6.003 16 4.834 16A3.337 3.337 0 011.5 12.66c0-.744.244-1.382.632-1.92a.915.915 0 011.279-.204z" fill="#3369FE"/></g><defs><clipPath id="clip0_2592_1528"><path fill="#fff" d="M0 0h16v16H0z"/></clipPath></defs></svg>